<svg width="68" height="68" viewBox="0 0 68 68" fill="none" xmlns="http://www.w3.org/2000/svg">
<path d="M61.625 8.83469C61.6082 7.08731 60.9034 5.41697 59.6633 4.18581C58.4232 2.95466 56.7478 2.26193 55.0003 2.25781L12.9678 2.125C11.2222 2.12535 9.54786 2.81787 8.312 4.05074C7.07614 5.28361 6.37957 6.95622 6.375 8.70187V52.0625C6.375 55.6883 9.33406 58.4375 12.9678 58.4375H48.875L47.1484 52.5938L61.625 65.875V8.83469ZM43.1176 43.8029C43.1176 43.8029 41.9595 42.423 40.9926 41.237C45.208 40.0496 46.8164 37.4531 46.8164 37.4531C45.6586 38.2212 44.4178 38.856 43.1176 39.3457C41.6163 39.969 40.0532 40.4316 38.4545 40.7256C35.6999 41.2316 32.8752 41.2208 30.1245 40.6937C28.5065 40.3933 26.9229 39.9305 25.3977 39.3125C24.5909 39.0035 23.8063 38.6391 23.0496 38.2221C22.9527 38.1584 22.857 38.1265 22.7601 38.0614C22.695 38.0295 22.6631 37.9977 22.6273 37.9977C22.0482 37.6763 21.7268 37.4518 21.7268 37.4518C21.7268 37.4518 23.2701 39.9872 27.3554 41.2051C26.3898 42.4243 25.1998 43.8361 25.1998 43.8361C18.093 43.6116 15.3916 38.9924 15.3916 38.9924C15.3916 28.7579 20.0228 20.4491 20.0228 20.4491C24.654 17.0159 29.0275 17.1129 29.0275 17.1129L29.3489 17.498C23.5596 19.1343 20.9233 21.6684 20.9233 21.6684C20.9233 21.6684 21.6298 21.2832 22.8198 20.7692C26.261 19.2618 28.9956 18.8766 30.1245 18.7491C30.3047 18.7117 30.4878 18.6899 30.6717 18.6841C32.8268 18.4044 35.0075 18.383 37.1676 18.6203C40.5593 19.0099 43.8452 20.0445 46.8483 21.6684C46.8483 21.6684 44.3076 19.2578 38.8397 17.6242L39.2899 17.1116C39.2899 17.1116 43.6953 17.0146 48.2959 20.4531C48.2959 20.4531 52.9271 28.7619 52.9271 38.9964C52.9271 38.9592 50.2244 43.5784 43.1176 43.8029Z" fill="white"/>
<path d="M28.1628 28.9531C26.33 28.9531 24.8823 30.5256 24.8823 32.482C24.8823 34.4383 26.3619 36.0108 28.1628 36.0108C29.9956 36.0108 31.4433 34.4396 31.4433 32.482C31.4765 30.5216 29.9956 28.9531 28.1628 28.9531Z" fill="white"/>
<path d="M39.9011 28.9531C38.0683 28.9531 36.6206 30.5256 36.6206 32.482C36.6206 34.4383 38.1001 36.0108 39.9011 36.0108C41.7352 36.0108 43.1815 34.4396 43.1815 32.482C43.1815 30.5243 41.7033 28.9531 39.9011 28.9531Z" fill="white"/>
</svg>
