<svg width="68" height="68" viewBox="0 0 68 68" fill="none" xmlns="http://www.w3.org/2000/svg">
<path fill-rule="evenodd" clip-rule="evenodd" d="M34 4.25018C26.9371 4.25113 20.1049 6.76486 14.7256 11.3417C9.34626 15.9186 5.77076 22.26 4.63864 29.2315C3.50653 36.2031 4.89166 43.3501 8.54627 49.3939C12.2009 55.4378 17.8866 59.9843 24.5862 62.2202C26.0737 62.4964 26.7112 61.5827 26.7112 60.7964V55.7389C18.445 57.5239 16.7025 51.7439 16.7025 51.7439C16.1212 49.9224 14.8977 48.3743 13.26 47.3877C10.5612 45.5602 13.4725 45.5814 13.4725 45.5814C14.4151 45.7146 15.3149 46.0614 16.103 46.5955C16.8912 47.1295 17.5468 47.8365 18.02 48.6627C18.8431 50.139 20.2188 51.228 21.8446 51.6902C23.4704 52.1525 25.2133 51.9501 26.69 51.1277C26.8099 49.6199 27.4747 48.2074 28.56 47.1539C21.9725 46.3889 15.0237 43.8389 15.0237 32.4489C14.9755 29.4907 16.0718 26.6282 18.0837 24.4589C17.1731 21.8966 17.2795 19.0826 18.3812 16.5964C18.3812 16.5964 20.8675 15.7889 26.5625 19.6352C31.4319 18.3069 36.5681 18.3069 41.4375 19.6352C47.1112 15.7889 49.5975 16.5964 49.5975 16.5964C50.6991 19.0826 50.8056 21.8966 49.895 24.4589C51.9069 26.6282 53.0031 29.4907 52.955 32.4489C52.955 43.8814 46.0062 46.3889 39.3762 47.1327C40.0864 47.8525 40.6341 48.7163 40.9823 49.6657C41.3306 50.6151 41.4713 51.6281 41.395 52.6364V60.7964C41.395 61.7739 41.9262 62.5177 43.52 62.2202C50.2284 59.9815 55.92 55.4263 59.574 49.3713C63.2281 43.3163 64.6056 36.1576 63.4595 29.1789C62.3135 22.2003 58.7188 15.8582 53.3202 11.2898C47.9215 6.72147 41.0721 4.22575 34 4.25018Z" fill="white"/>
</svg>
