<svg width="68" height="68" viewBox="0 0 68 68" fill="none" xmlns="http://www.w3.org/2000/svg">
<path d="M22.958 38.5312C21.6631 38.5312 20.5528 39.1369 19.6563 40.3734C18.7598 41.6098 18.3188 43.1066 18.3188 44.889C18.3188 46.6713 18.7744 48.1973 19.6563 49.4205C20.5381 50.6437 21.6485 51.2653 22.958 51.2653C24.1666 51.2653 25.2158 50.6464 26.103 49.4232C26.9902 48.2 27.4404 46.6899 27.4404 44.8916C27.4404 43.0934 26.9849 41.5966 26.103 40.376C25.2211 39.1555 24.1719 38.5312 22.958 38.5312Z" fill="white"/>
<path d="M45.1987 38.5312C43.9184 38.5312 42.7935 39.1369 41.897 40.3734C41.0005 41.6098 40.5596 43.1066 40.5596 44.889C40.5596 46.6713 41.0151 48.1973 41.897 49.4205C42.7789 50.6437 43.9038 51.2653 45.1987 51.2653C46.4086 51.2653 47.4565 50.6464 48.3583 49.4232C49.2601 48.2 49.6957 46.6899 49.6957 44.8916C49.6957 43.0934 49.2402 41.5966 48.3583 40.376C47.4764 39.1555 46.4232 38.5312 45.1987 38.5312Z" fill="white"/>
<path d="M61.0087 21.9141C60.9941 21.9141 61.3926 19.8568 61.0513 16.2735C60.7378 12.6876 59.9888 9.39648 58.7602 6.375C58.7602 6.375 58.1334 6.49055 56.938 6.79203C55.7427 7.09352 53.7891 7.70312 51.1182 8.92234C48.4859 10.1442 45.7114 11.7698 42.8227 13.7421C40.8584 13.1803 37.9273 12.8934 34 12.8934C30.2573 12.8934 27.3262 13.1803 25.1773 13.7421C18.8315 9.29555 13.5141 6.83984 9.22516 6.375C8.0024 9.39693 7.24359 12.7062 6.94875 16.3027C6.60742 19.8887 7.00586 21.9579 7.00586 21.9579C3.54742 25.7417 2.125 31.195 2.125 35.6973C2.125 39.1797 2.22461 42.33 2.99359 45.127C3.79047 47.9041 4.79984 50.1739 5.99516 51.9191C7.23185 53.6838 8.75127 55.2324 10.4922 56.5024C12.2705 57.8412 13.9068 58.8054 15.3877 59.4097C16.8818 60.0419 18.5752 60.5027 20.5102 60.8334C21.9444 61.1109 23.3937 61.3034 24.8505 61.4098C24.8505 61.4098 28.8349 61.625 34.0146 61.625C39.1943 61.625 43.1641 61.4098 43.1641 61.4098C44.6208 61.2998 46.07 61.1056 47.5044 60.8281C49.2548 60.5456 50.9681 60.0681 52.6123 59.4044C54.0932 58.7855 55.7295 57.8359 57.5264 56.4971C59.2666 55.2289 60.7817 53.6778 62.0088 51.9084C63.2041 50.1673 64.2135 47.8935 65.0104 45.1164C65.8073 42.3393 65.875 39.1651 65.875 35.6827C65.875 31.3238 64.4526 25.7988 61.0087 21.9141ZM51.7026 55.5249C47.7315 57.4095 41.897 58.1719 34.1567 58.1719H33.8579C26.1162 58.1719 20.2818 57.4241 16.3837 55.5249C12.4857 53.6257 10.5068 49.7542 10.5068 43.9131C10.5068 40.4175 11.73 37.5833 14.1352 35.4131C15.1884 34.4834 16.4688 33.83 18.0625 33.4422C19.6562 33.0544 21.1079 33.0437 22.4732 33.0823C23.812 33.1394 25.6899 33.3984 28.0659 33.5856C30.442 33.7729 32.2349 34.0173 34.0146 34.0173C35.6787 34.0173 37.8848 33.7291 41.4282 33.4422C44.9716 33.1553 47.6186 33.0105 49.3252 33.2974C51.0757 33.5856 52.5991 34.1899 53.894 35.4131C56.4121 37.686 57.6738 40.5193 57.6791 43.9131C57.6645 49.7542 55.6577 53.6403 51.7026 55.5249Z" fill="white"/>
</svg>
