<svg width="68" height="68" viewBox="0 0 68 68" fill="none" xmlns="http://www.w3.org/2000/svg">
<path d="M53.0944 26.9609C52.9882 24.6898 52.6562 22.3789 51.6601 20.307C51.1138 19.1607 50.3723 18.118 49.4687 17.2258C48.6216 16.3868 47.6709 15.6594 46.6398 15.0609C44.3687 13.7063 41.6593 12.8031 35.4304 10.9438C29.2015 9.08438 25.5 8.5 25.5 8.5V56.0867L36.1117 59.5C36.1117 59.5 36.125 33.0969 36.125 19.7227V19.218C36.125 17.9828 37.1211 16.9867 38.2633 16.9867H38.3297C39.4586 16.9867 40.3883 17.9828 40.3883 19.218V36.9219C41.8492 37.6258 44.2664 38.157 45.9398 38.1305C47.0503 38.1614 48.1494 37.9004 49.1273 37.3734C50.1366 36.8153 50.9798 35.9996 51.5711 35.0094C52.2307 33.8929 52.6765 32.6633 52.8859 31.3836C53.1343 29.9492 53.1476 28.4484 53.0944 26.9609Z" fill="white"/>
<path d="M11.5111 47.5207C15.1502 46.2191 23.3713 43.6027 23.3713 43.6027V37.334C23.3713 37.334 13.2111 40.6277 8.58925 42.2613C7.44707 42.673 6.2916 43.0449 5.17597 43.523C3.87441 44.0676 2.59941 44.6785 1.44394 45.4887C0.925555 45.8203 0.50403 46.2831 0.222065 46.8301C0.0899047 47.1112 0.0158977 47.416 0.00448639 47.7264C-0.00692492 48.0368 0.0444948 48.3463 0.155659 48.6363C0.421284 49.3137 0.925972 49.8715 1.49707 50.3098C2.533 51.0934 3.76816 51.5715 5.00331 51.9301C8.78703 53.186 12.7582 53.7835 16.7439 53.6965C18.6697 53.6699 21.5252 53.4441 23.3846 53.1121V47.534C23.3846 47.534 21.9236 47.866 17.8994 49.1941C17.2885 49.3934 16.6775 49.6324 16.04 49.7652C15.0965 49.9616 14.1351 50.0595 13.1713 50.0574C12.308 50.0176 11.4182 49.9645 10.608 49.6457C10.3158 49.5129 9.99707 49.3535 9.87753 49.0348C9.77129 48.7691 9.91738 48.5035 10.1033 48.3176C10.4752 47.9324 11.0064 47.7199 11.5111 47.5207Z" fill="white"/>
<path d="M68 45.9402C67.9867 45.1434 67.5086 44.4527 66.9508 43.948C66.0078 43.1113 64.8391 42.5801 63.6703 42.1551C62.9398 41.9027 62.4352 41.7168 61.718 41.491C58.3711 40.402 54.825 40.0035 51.3187 39.9902C50.2562 40.0301 48.2508 40.0566 47.2016 40.1762C44.293 40.5082 38.2633 42.2215 38.2633 42.2215V48.7027C38.2633 48.7027 47.2281 45.834 51.0797 44.4793C52.3789 44.0579 53.7382 43.8515 55.1039 43.8684C55.9672 43.8949 56.857 43.9613 57.6805 44.2801C57.9727 44.3996 58.2781 44.5723 58.4109 44.8777C58.5305 45.223 58.2914 45.5418 58.0258 45.741C57.4016 46.2457 56.6047 46.4449 55.8742 46.7238C50.4289 48.6496 38.25 52.6605 38.25 52.6605V58.9027C38.25 58.9027 53.8156 53.6434 60.9344 51.0934C62.1164 50.6551 63.3117 50.2832 64.4406 49.7121C65.4898 49.1809 66.5391 48.5699 67.3359 47.6801C67.7627 47.2009 67.999 46.5819 68 45.9402Z" fill="white"/>
</svg>
