<svg width="68" height="68" viewBox="0 0 68 68" fill="none" xmlns="http://www.w3.org/2000/svg">
<path d="M65.8749 27.625C65.8753 25.9958 65.4074 24.4009 64.527 23.0302C63.6465 21.6594 62.3906 20.5707 60.9089 19.8936C59.4271 19.2165 57.7819 18.9796 56.1693 19.2111C54.5567 19.4427 53.0446 20.1328 51.8132 21.1995C47.363 18.8349 42.0486 17.4064 36.4957 17.0754L37.8759 8.79427L43.6748 9.6865C43.9544 11.1644 44.7475 12.4958 45.9139 13.4455C47.0803 14.3952 48.5449 14.9019 50.0488 14.8762C51.5527 14.8504 52.999 14.2939 54.1322 13.3048C55.2655 12.3158 56.0125 10.958 56.2414 9.4714C56.4703 7.9848 56.1663 6.46515 55.3831 5.18103C54.5999 3.89691 53.388 2.93101 51.9615 2.45406C50.535 1.9771 48.9858 2.0198 47.5878 2.57461C46.1897 3.12941 45.0328 4.1606 44.3215 5.48591L36.4479 4.27466C35.8954 4.18942 35.3315 4.32546 34.8787 4.65325C34.4258 4.98105 34.1205 5.47417 34.0288 6.02566L32.1926 17.0433C26.3916 17.2932 20.8204 18.7374 16.1865 21.1995C14.4991 19.7392 12.3049 19.0013 10.078 19.1451C7.85106 19.2889 5.77004 20.3028 4.2844 21.968C2.79875 23.6332 2.02771 25.8159 2.1378 28.0448C2.24789 30.2736 3.23027 32.3698 4.87278 33.8804C4.46023 35.3003 4.25052 36.7714 4.24989 38.25C4.24989 44.0764 7.44855 49.4997 13.2564 53.5207C18.8261 57.3763 26.1932 59.5 33.9999 59.5C41.8066 59.5 49.1737 57.3765 54.7433 53.5207C60.5512 49.4994 63.7499 44.0762 63.7499 38.25C63.7493 36.7713 63.5395 35.3003 63.1267 33.8804C63.9905 33.0829 64.6803 32.1156 65.1532 31.0393C65.6261 29.9629 65.8717 28.8006 65.8749 27.625ZM19.1249 35.0625C19.1249 34.2219 19.3741 33.4002 19.8411 32.7013C20.3081 32.0024 20.9719 31.4576 21.7485 31.136C22.5251 30.8143 23.3796 30.7301 24.204 30.8941C25.0284 31.0581 25.7857 31.4629 26.3801 32.0573C26.9745 32.6516 27.3792 33.4089 27.5432 34.2333C27.7072 35.0577 27.6231 35.9123 27.3014 36.6889C26.9797 37.4654 26.435 38.1292 25.7361 38.5962C25.0372 39.0632 24.2155 39.3125 23.3749 39.3125C22.2481 39.3112 21.1678 38.863 20.3711 38.0663C19.5743 37.2695 19.1262 36.1892 19.1249 35.0625ZM43.7473 48.6385C40.7328 50.1916 37.3909 51.0019 33.9999 51.0019C30.6089 51.0019 27.267 50.1916 24.2525 48.6385C23.7531 48.3793 23.3769 47.9324 23.2064 47.3961C23.036 46.8598 23.0853 46.2778 23.3434 45.7777C23.6016 45.2777 24.0476 44.9005 24.5835 44.7288C25.1194 44.5572 25.7016 44.6051 26.2022 44.8622C28.6136 46.1046 31.2871 46.7528 33.9998 46.7528C36.7124 46.7528 39.3859 46.1046 41.7973 44.8622C42.2975 44.6087 42.8776 44.5632 43.4112 44.7357C43.9448 44.9081 44.3886 45.2844 44.6459 45.7827C44.9032 46.2809 44.9531 46.8607 44.7848 47.3956C44.6165 47.9305 44.2435 48.3772 43.7473 48.6383V48.6385ZM44.6249 39.3125C43.7843 39.3125 42.9626 39.0632 42.2637 38.5962C41.5648 38.1292 41.0201 37.4654 40.6984 36.6889C40.3767 35.9123 40.2926 35.0577 40.4566 34.2333C40.6205 33.4089 41.0253 32.6516 41.6197 32.0573C42.2141 31.4629 42.9713 31.0581 43.7958 30.8941C44.6202 30.7301 45.4747 30.8143 46.2513 31.136C47.0279 31.4576 47.6916 32.0024 48.1586 32.7013C48.6256 33.4002 48.8749 34.2219 48.8749 35.0625C48.8736 36.1892 48.4255 37.2695 47.6287 38.0663C46.8319 38.863 45.7517 39.3112 44.6249 39.3125Z" fill="white"/>
</svg>
