<svg width="68" height="68" viewBox="0 0 68 68" fill="none" xmlns="http://www.w3.org/2000/svg">
<path d="M19.2143 40.7272C19.2143 41.7869 18.9 42.8227 18.3113 43.7037C17.7225 44.5847 16.8857 45.2714 15.9067 45.6768C14.9277 46.0822 13.8505 46.1882 12.8112 45.9813C11.772 45.7744 10.8174 45.264 10.0683 44.5145C9.31919 43.7651 8.80914 42.8104 8.60268 41.7711C8.39621 40.7317 8.50261 39.6545 8.9084 38.6757C9.31419 37.6968 10.0012 36.8603 10.8824 36.2719C11.7637 35.6835 12.7996 35.3697 13.8593 35.3701H19.2143V40.7272Z" fill="white"/>
<path d="M21.915 40.7272C21.915 39.3064 22.4794 37.9438 23.4841 36.9392C24.4888 35.9345 25.8514 35.3701 27.2722 35.3701C28.693 35.3701 30.0556 35.9345 31.0602 36.9392C32.0649 37.9438 32.6293 39.3064 32.6293 40.7272V54.1424C32.6293 55.5632 32.0649 56.9258 31.0602 57.9304C30.0556 58.9351 28.693 59.4995 27.2722 59.4995C25.8514 59.4995 24.4888 58.9351 23.4841 57.9304C22.4794 56.9258 21.915 55.5632 21.915 54.1424V40.7272Z" fill="white"/>
<path d="M27.2722 19.2143C26.2125 19.2143 25.1767 18.9 24.2957 18.3113C23.4147 17.7225 22.728 16.8857 22.3226 15.9067C21.9172 14.9277 21.8113 13.8505 22.0181 12.8112C22.225 11.772 22.7354 10.8174 23.4849 10.0683C24.2343 9.31919 25.189 8.80914 26.2283 8.60268C27.2677 8.39621 28.3449 8.50261 29.3237 8.9084C30.3026 9.31419 31.1391 10.0012 31.7275 10.8824C32.3159 11.7637 32.6297 12.7996 32.6293 13.8593V19.2143H27.2722Z" fill="white"/>
<path d="M27.2724 21.916C28.6932 21.916 30.0558 22.4804 31.0605 23.4851C32.0651 24.4897 32.6295 25.8523 32.6295 27.2731C32.6295 28.6939 32.0651 30.0565 31.0605 31.0612C30.0558 32.0659 28.6932 32.6303 27.2724 32.6303H13.8552C12.4344 32.6303 11.0718 32.0659 10.0671 31.0612C9.06246 30.0565 8.49805 28.6939 8.49805 27.2731C8.49805 25.8523 9.06246 24.4897 10.0671 23.4851C11.0718 22.4804 12.4344 21.916 13.8552 21.916H27.2724Z" fill="white"/>
<path d="M48.7856 27.2731C48.7856 26.2135 49.0999 25.1777 49.6886 24.2967C50.2774 23.4156 51.1142 22.729 52.0932 22.3236C53.0722 21.9182 54.1494 21.8122 55.1887 22.0191C56.2279 22.226 57.1825 22.7364 57.9316 23.4858C58.6807 24.2353 59.1907 25.19 59.3972 26.2293C59.6037 27.2686 59.4973 28.3458 59.0915 29.3247C58.6857 30.3035 57.9987 31.1401 57.1175 31.7285C56.2362 32.3169 55.2003 32.6307 54.1406 32.6303H48.7856V27.2731Z" fill="white"/>
<path d="M46.0849 27.2724C46.0849 28.6932 45.5204 30.0558 44.5158 31.0605C43.5111 32.0651 42.1485 32.6295 40.7277 32.6295C39.3069 32.6295 37.9443 32.0651 36.9397 31.0605C35.935 30.0558 35.3706 28.6932 35.3706 27.2724V13.8552C35.3706 12.4344 35.935 11.0718 36.9397 10.0671C37.9443 9.06246 39.3069 8.49805 40.7277 8.49805C42.1485 8.49805 43.5111 9.06246 44.5158 10.0671C45.5204 11.0718 46.0849 12.4344 46.0849 13.8552V27.2724Z" fill="white"/>
<path d="M40.7277 48.7861C41.7874 48.7861 42.8232 49.1004 43.7042 49.6891C44.5852 50.2779 45.2719 51.1147 45.6773 52.0937C46.0827 53.0727 46.1886 54.1499 45.9818 55.1892C45.7749 56.2284 45.2645 57.1829 44.515 57.9321C43.7656 58.6812 42.8109 59.1912 41.7715 59.3977C40.7322 59.6042 39.655 59.4978 38.6762 59.092C37.6973 58.6862 36.8608 57.9992 36.2724 57.118C35.684 56.2367 35.3702 55.2008 35.3706 54.1411V48.7861H40.7277Z" fill="white"/>
<path d="M40.7277 46.0844C39.3069 46.0844 37.9443 45.52 36.9397 44.5153C35.935 43.5106 35.3706 42.148 35.3706 40.7272C35.3706 39.3064 35.935 37.9438 36.9397 36.9392C37.9443 35.9345 39.3069 35.3701 40.7277 35.3701H54.1429C55.5637 35.3701 56.9263 35.9345 57.9309 36.9392C58.9356 37.9438 59.5 39.3064 59.5 40.7272C59.5 42.148 58.9356 43.5106 57.9309 44.5153C56.9263 45.52 55.5637 46.0844 54.1429 46.0844H40.7277Z" fill="white"/>
</svg>
