<svg width="69" height="68" viewBox="0 0 69 68" fill="none" xmlns="http://www.w3.org/2000/svg">
<path d="M67.9358 15.9151C67.9323 14.6902 67.8204 13.468 67.6015 12.2628C67.3569 10.7896 66.8917 9.36158 66.2216 8.02695C65.4866 6.62452 64.5298 5.35007 63.3882 4.25289C61.6656 2.56847 59.5384 1.35563 57.2115 0.73101C55.0736 0.212894 52.8768 -0.0214573 50.6777 0.0339994L50.6664 0H17.3232V0.0339994C16.0717 0.0238583 14.8204 0.0796587 13.5747 0.201168C12.2119 0.346902 10.8704 0.649236 9.5768 1.10218C7.44413 1.90529 5.5309 3.20002 3.99245 4.88123C2.454 6.56245 1.33371 8.58276 0.722511 10.7782C0.207912 12.8974 -0.0264247 15.075 0.0254999 17.2552L0 50.7061C0.0217005 52.2207 0.124796 53.7331 0.308838 55.2366C0.535953 56.8232 1.00514 58.3655 1.70002 59.8097C2.68114 61.7386 4.07745 63.4262 5.78858 64.7511C7.01125 65.7255 8.39628 66.4766 9.87997 66.9696C12.0581 67.6419 14.3269 67.9745 16.6064 67.9556C18.0344 67.9641 19.4596 68.001 20.8848 67.9953C31.2549 67.95 41.6223 68.069 51.9896 67.9301C53.3593 67.9002 54.7242 67.7552 56.0696 67.4966C58.6122 67.0496 60.9787 65.8992 62.9009 64.1759C65.1642 62.2109 66.7447 59.5777 67.4145 56.6561C67.8265 54.7001 68.0232 52.7049 68.001 50.7061V50.3066C68.001 50.1507 67.9443 16.3627 67.9358 15.9151ZM58.8322 47.3797C58.3958 48.3997 56.1971 49.2412 52.4741 49.8164C52.1256 49.873 51.9782 50.4369 51.7771 51.3606C51.6921 51.7431 51.6071 52.1171 51.4937 52.5081C51.4597 52.6743 51.3659 52.8223 51.2302 52.9241C51.0945 53.0259 50.9261 53.0744 50.7571 53.0606H50.7004C50.3439 53.048 49.9892 53.0035 49.6407 52.9274C48.7219 52.7344 47.7859 52.6348 46.847 52.6299C46.1729 52.6317 45.5001 52.6886 44.8353 52.7999C43.4308 53.1554 42.1244 53.8226 41.0131 54.7521C39.1353 56.3554 36.776 57.2857 34.3093 57.3957C34.1676 57.3957 34.0317 57.39 33.9296 57.3843C33.8467 57.3915 33.7635 57.3953 33.6803 57.3957C31.2147 57.2872 28.8561 56.3577 26.9794 54.755C25.8671 53.8247 24.5598 53.1565 23.1543 52.7999C22.4895 52.6885 21.8167 52.6316 21.1426 52.6299C20.2041 52.6393 19.2689 52.7447 18.3518 52.9444C18.0036 53.0259 17.6491 53.0771 17.2921 53.0974C17.1124 53.1176 16.9316 53.0701 16.785 52.9643C16.6383 52.8585 16.5363 52.702 16.4987 52.5251C16.3797 52.1284 16.2947 51.7402 16.2154 51.3691C16.0114 50.4397 15.8641 49.873 15.5156 49.8192C11.7953 49.244 9.5938 48.3997 9.15746 47.374C9.11319 47.2717 9.08729 47.1623 9.08096 47.051C9.07204 46.9038 9.11811 46.7585 9.21026 46.6433C9.3024 46.5281 9.43404 46.4513 9.57964 46.4277C12.6577 45.8706 15.4314 44.2217 17.3912 41.7838C18.4699 40.5365 19.3666 39.1428 20.0546 37.6442L20.066 37.6159C20.2689 37.2839 20.3969 36.9115 20.4409 36.5249C20.4849 36.1382 20.444 35.7467 20.321 35.3775C19.8421 34.2442 18.2526 33.7426 17.2042 33.4083C16.9655 33.3371 16.7292 33.2577 16.4959 33.1703C15.5666 32.802 14.0365 32.0256 14.2405 30.9518C14.3967 30.5481 14.6751 30.2033 15.0368 29.9655C15.3985 29.7278 15.8254 29.609 16.2579 29.6258C16.4684 29.6208 16.6774 29.6624 16.8699 29.7476C17.6545 30.1492 18.5167 30.3763 19.3973 30.4134C19.9201 30.4503 20.4381 30.2917 20.8508 29.9686C20.8244 29.4718 20.7941 28.976 20.7601 28.4811C20.2815 25.1267 20.4858 21.7102 21.3608 18.4368C22.39 16.0874 24.0885 14.0934 26.2442 12.7036C28.3999 11.3138 30.9173 10.5899 33.482 10.6223L34.485 10.6138C37.053 10.581 39.5739 11.3051 41.733 12.6958C43.8921 14.0865 45.5939 16.0822 46.626 18.4339C47.5013 21.7102 47.7057 25.1295 47.2267 28.4867L47.2182 28.6482L47.1388 29.9714C47.5137 30.2686 47.9809 30.425 48.4592 30.4134C49.2884 30.3511 50.0972 30.1258 50.8392 29.7504C51.0849 29.6435 51.3505 29.5904 51.6184 29.5946C51.9222 29.5936 52.2233 29.6513 52.5052 29.7646L52.5194 29.7703C52.8381 29.8468 53.1269 30.0165 53.3489 30.2577C53.5709 30.4989 53.7161 30.8006 53.7661 31.1246C53.7774 31.646 53.3921 32.4223 51.4909 33.1731C51.2584 33.2601 51.0231 33.3395 50.7854 33.4111C49.7342 33.7455 48.1475 34.2498 47.6687 35.3803C47.5459 35.7491 47.5051 36.1402 47.5491 36.5263C47.5931 36.9124 47.721 37.2843 47.9237 37.6159L47.935 37.6442C48.8862 39.8164 50.3265 41.7393 52.1436 43.263C53.9607 44.7866 56.1053 45.8697 58.41 46.4277C58.5553 46.4519 58.6866 46.5289 58.7786 46.6439C58.8706 46.7589 58.917 46.9039 58.9087 47.051C58.9027 47.1642 58.8768 47.2755 58.8322 47.3797Z" fill="white"/>
</svg>
