<svg width="48" height="58" viewBox="0 0 48 58" fill="none" xmlns="http://www.w3.org/2000/svg">
<g filter="url(#filter0_d)">
<path d="M34 14.291L36 20.291L42 22.291L36 24.291L34 30.2909L32 24.291L26 22.291L32 20.291L34 14.291Z" fill="white"/>
<path d="M18 6L19.3225 9.96762L23.2901 11.2901L19.3225 12.6127L18 16.5803L16.6775 12.6127L12.7099 11.2901L16.6775 9.96762L18 6Z" fill="white"/>
<path d="M18 27.291L21 36.2911L30 39.291L21 42.2911L18 51.2911L15 42.2911L5.99997 39.291L15 36.2911L18 27.291Z" fill="white"/>
</g>
<defs>
<filter id="filter0_d" x="0" y="0" width="48" height="57.2911" filterUnits="userSpaceOnUse" color-interpolation-filters="sRGB">
<feFlood flood-opacity="0" result="BackgroundImageFix"/>
<feColorMatrix in="SourceAlpha" type="matrix" values="0 0 0 0 0 0 0 0 0 0 0 0 0 0 0 0 0 0 127 0"/>
<feOffset/>
<feGaussianBlur stdDeviation="3"/>
<feColorMatrix type="matrix" values="0 0 0 0 1 0 0 0 0 1 0 0 0 0 1 0 0 0 1 0"/>
<feBlend mode="normal" in2="BackgroundImageFix" result="effect1_dropShadow"/>
<feBlend mode="normal" in="SourceGraphic" in2="effect1_dropShadow" result="shape"/>
</filter>
</defs>
</svg>
