<svg width="68" height="68" viewBox="0 0 68 68" fill="none" xmlns="http://www.w3.org/2000/svg">
<g clip-path="url(#clip0)">
<path d="M67.5536 19.7612C67.5536 13.7846 63.1575 8.9768 57.7255 8.9768C50.3676 8.63281 42.8637 8.5 35.1951 8.5H32.8045C25.1545 8.5 17.6373 8.63281 10.2795 8.97812C4.86077 8.97812 0.464675 13.8125 0.464675 19.7891C0.132644 24.5159 -0.00813767 29.244 -0.000168919 33.9721C-0.0134502 38.7002 0.137071 43.4328 0.451394 48.1698C0.451394 54.1463 4.84749 58.994 10.2662 58.994C17.9959 59.3526 25.9248 59.5119 33.9865 59.4987C42.0616 59.5252 49.9683 59.357 57.7069 58.994C63.1389 58.994 67.535 54.1463 67.535 48.1698C67.8537 43.4284 67.9998 38.7002 67.9865 33.9588C68.0167 29.2307 67.8723 24.4981 67.5536 19.7612ZM27.492 47.001V20.9034L46.7498 33.9455L27.492 47.001Z" fill="white"/>
</g>
<defs>
<clipPath id="clip0">
<rect width="68" height="68" fill="white"/>
</clipPath>
</defs>
</svg>
