<svg width="48" height="48" viewBox="0 0 48 48" fill="none" xmlns="http://www.w3.org/2000/svg">
<rect width="48" height="48" rx="10" fill="#1C2732"/>
<g clip-path="url(#clip0)">
<path d="M8 31.63L10.703 36.302C10.9718 36.8369 11.3838 37.2867 11.8932 37.6012C12.4026 37.9157 12.9894 38.0825 13.588 38.083H31.531L27.807 31.63H8ZM40 31.661C39.9986 31.0404 39.8196 30.4331 39.484 29.911L28.968 11.635C28.6938 11.1158 28.2831 10.6814 27.7802 10.3784C27.2772 10.0755 26.7011 9.91561 26.114 9.91602H20.557L36.797 38.051L39.36 33.619C39.86 32.77 40.001 32.395 40.001 31.661H40ZM25.161 27.047L17.906 14.479L10.646 27.047H25.161Z" fill="white"/>
</g>
<defs>
<clipPath id="clip0">
<rect width="32" height="32" fill="white" transform="translate(8 8)"/>
</clipPath>
</defs>
</svg>
