<svg width="48" height="48" viewBox="0 0 48 48" fill="none" xmlns="http://www.w3.org/2000/svg">
<rect width="48" height="48" rx="10" fill="#1C2732"/>
<path d="M32.4375 31.8125V19.3125H19.9375V18.5312C19.9375 17.2387 20.9887 16.1875 22.2812 16.1875H24.625V11.5H22.2812C20.4172 11.5023 18.6301 12.2438 17.312 13.562C15.9938 14.8801 15.2523 16.6672 15.25 18.5312V19.3125H12.125V24H15.25V31.8125H12.125V36.5H23.0625V31.8125H19.9375V24H27.7937V31.8125H24.625V36.5H35.5625V31.8125H32.4375Z" fill="white"/>
<path d="M30.0938 16.1875C31.3882 16.1875 32.4375 15.1382 32.4375 13.8438C32.4375 12.5493 31.3882 11.5 30.0938 11.5C28.7993 11.5 27.75 12.5493 27.75 13.8438C27.75 15.1382 28.7993 16.1875 30.0938 16.1875Z" fill="white"/>
</svg>
