<svg width="48" height="48" viewBox="0 0 48 48" fill="none" xmlns="http://www.w3.org/2000/svg">
<rect width="48" height="48" rx="10" fill="#1C2732"/>
<g clip-path="url(#clip0)">
<path d="M17.9975 32.9521H3.99743C3.98452 32.9467 3.97213 32.9388 3.95864 32.9363C3.38784 32.8287 3 32.3714 3 31.8054V17.1902C3 16.5527 3.51384 16.0488 4.16412 16.0488H17.8211C18.4709 16.0488 18.9859 16.5525 18.986 17.1906C18.9864 22.0652 18.9863 26.9398 18.986 31.8144C18.986 32.3142 18.6643 32.745 18.1782 32.8997C18.1184 32.9186 18.0578 32.9347 17.9975 32.9521ZM13.8009 21.1889L13.8876 24.8787C13.8629 24.8673 13.8553 24.8553 13.8484 24.8428C13.1909 23.6486 12.5329 22.4546 11.8773 21.2594C11.8468 21.2039 11.8145 21.1846 11.7504 21.1849C11.1963 21.1876 10.6421 21.1864 10.088 21.1866C10.0598 21.1866 10.0316 21.1889 10.0023 21.1901V28.3352H11.9037L11.8167 24.6501C11.8482 24.6716 11.8622 24.6956 11.8757 24.72C12.5249 25.8992 13.1745 27.0781 13.8219 28.2582C13.8564 28.3213 13.8935 28.3449 13.9689 28.3444C14.5114 28.3405 15.0538 28.3423 15.5963 28.3423H15.7007V21.1889L13.8009 21.1889ZM6.72466 21.1895V28.3373H8.6186V21.1895H6.72466ZM45 17.9154H43.5016V32.6988H41.7435V17.9212H40.1674V16.1202H40.2848C41.8186 16.1202 43.3526 16.1202 44.8865 16.12C44.9243 16.12 44.9622 16.1182 45 16.1172V17.9154ZM33.7001 16.1244H35.4807C35.5092 16.2669 35.5387 16.4113 35.5668 16.5559C35.8626 18.0733 36.1584 19.5906 36.4536 21.1082C36.6749 22.245 36.9042 23.3806 37.1128 24.5197C37.2438 25.2351 37.3433 25.956 37.4571 26.6743C37.4624 26.7078 37.4697 26.7409 37.4877 26.7735V16.1266H39.0391V32.6994C39.009 32.7007 38.9754 32.7035 38.9418 32.7036C38.5422 32.7039 38.1425 32.7004 37.7431 32.7064C37.6549 32.7076 37.6318 32.6755 37.6143 32.6005C37.317 31.3194 37.0171 30.039 36.7173 28.7585C36.3733 27.2892 36.0204 25.8217 35.6887 24.3497C35.5546 23.7546 35.4666 23.1495 35.3576 22.549C35.3275 22.3837 35.2973 22.2186 35.2552 22.0539V32.6986H33.7001V16.1244ZM27.0345 16.1201H27.127C27.9669 16.1201 28.8069 16.1135 29.6468 16.1223C30.2684 16.1288 30.8237 16.3116 31.2472 16.7833C31.5571 17.1282 31.717 17.5426 31.784 17.9898C31.8227 18.2485 31.8448 18.5118 31.846 18.7732C31.8519 20.106 31.8491 21.4389 31.8484 22.7718C31.8483 23.0757 31.8147 23.3754 31.7113 23.6641C31.5635 24.077 31.2992 24.4011 30.9279 24.643C30.911 24.654 30.8944 24.6654 30.8778 24.6768C30.8756 24.6784 30.8744 24.6814 30.8737 24.6824C30.9952 24.7773 31.122 24.8664 31.237 24.9682C31.6144 25.3028 31.8155 25.7268 31.8742 26.2174C31.8891 26.3417 31.8943 26.4678 31.8944 26.593C31.8958 27.9288 31.8928 29.2644 31.8967 30.6002C31.8979 31.0309 31.9166 31.4614 32.0328 31.8812C32.0503 31.9444 32.0692 32.0075 32.0916 32.0691C32.1767 32.3035 32.1977 32.4774 32.1677 32.7494H32.0769C31.7356 32.7494 31.3944 32.746 31.0532 32.7508C30.8789 32.7533 30.7427 32.6862 30.6307 32.5634C30.4381 32.3523 30.352 32.0917 30.2851 31.8246C30.1986 31.4796 30.1642 31.1275 30.1638 30.773C30.1619 29.2975 30.1628 27.8219 30.1632 26.3463C30.1633 26.1553 30.1354 25.9706 30.0379 25.8018C29.9175 25.5933 29.7365 25.4835 29.4883 25.4849C29.2701 25.486 29.0519 25.4851 28.8248 25.4851V32.6961H27.0345V16.1201ZM28.8281 17.8992V23.7862C29.0707 23.7862 29.3068 23.7947 29.542 23.7837C29.7522 23.774 29.8989 23.6575 29.9866 23.4715C30.0614 23.313 30.0862 23.1434 30.0863 22.9716C30.0878 21.525 30.0897 20.0783 30.0835 18.6317C30.0828 18.4811 30.0453 18.3263 29.999 18.1814C29.9477 18.0207 29.8204 17.9112 29.6458 17.9027C29.3759 17.8895 29.1049 17.8992 28.8281 17.8992ZM22.6353 32.6981H20.8746V16.1247C20.9049 16.1232 20.9353 16.1203 20.9659 16.1203C21.7971 16.1201 22.6283 16.1131 23.4594 16.1224C24.1 16.1295 24.6693 16.3212 25.1009 16.8121C25.3801 17.1297 25.5376 17.506 25.6068 17.914C25.6504 18.1717 25.6785 18.4349 25.6797 18.6959C25.6863 20.2256 25.6846 21.7554 25.6819 23.2851C25.6811 23.7396 25.609 24.1836 25.4156 24.6009C25.0982 25.2855 24.5436 25.6663 23.7906 25.754C23.4478 25.7939 23.0981 25.7764 22.7516 25.7848C22.7167 25.7856 22.6818 25.7849 22.6354 25.7849C22.6353 28.091 22.6353 30.3918 22.6353 32.6981ZM22.6346 24.1313C22.9198 24.1313 23.1964 24.1388 23.4723 24.1283C23.6247 24.1224 23.7354 24.0301 23.8096 23.8995C23.9033 23.7346 23.9258 23.5531 23.926 23.3701C23.9279 21.7979 23.9296 20.2257 23.9233 18.6536C23.9227 18.4945 23.8875 18.3296 23.8354 18.1782C23.7696 17.9871 23.612 17.8944 23.4019 17.8951C23.1716 17.8959 22.9412 17.8951 22.7109 17.8955C22.6859 17.8956 22.661 17.899 22.6346 17.901V24.1313Z" fill="white"/>
</g>
<defs>
<clipPath id="clip0">
<rect width="42" height="17" fill="white" transform="translate(3 16)"/>
</clipPath>
</defs>
</svg>
