<svg width="48" height="48" viewBox="0 0 48 48" fill="none" xmlns="http://www.w3.org/2000/svg">
<rect width="48" height="48" rx="10" fill="#1C2732"/>
<path d="M23.9999 16.3886C19.788 16.3886 16.3888 19.7878 16.3888 23.9997C16.3888 28.2116 19.788 31.6109 23.9999 31.6109C28.2118 31.6109 31.6111 28.2116 31.6111 23.9997C31.6111 19.7878 28.2118 16.3886 23.9999 16.3886ZM23.9999 28.9464C21.2761 28.9464 19.0533 26.7236 19.0533 23.9997C19.0533 21.2759 21.2761 19.0531 23.9999 19.0531C26.7238 19.0531 28.9466 21.2759 28.9466 23.9997C28.9466 26.7236 26.7238 28.9464 23.9999 28.9464ZM31.9228 14.3031C30.9394 14.3031 30.1452 15.0972 30.1452 16.0806C30.1452 17.064 30.9394 17.8581 31.9228 17.8581C32.9062 17.8581 33.7003 17.0677 33.7003 16.0806C33.7006 15.8471 33.6548 15.6158 33.5656 15.4C33.4764 15.1842 33.3455 14.9881 33.1803 14.823C33.0152 14.6579 32.8192 14.527 32.6034 14.4378C32.3876 14.3485 32.1563 14.3028 31.9228 14.3031ZM38.8363 23.9997C38.8363 21.9513 38.8548 19.9214 38.7398 17.8767C38.6247 15.5017 38.0829 13.3939 36.3462 11.6572C34.6058 9.91673 32.5017 9.37864 30.1267 9.2636C28.0783 9.14856 26.0484 9.16712 24.0036 9.16712C21.9552 9.16712 19.9253 9.14856 17.8806 9.2636C15.5056 9.37864 13.3978 9.92044 11.6611 11.6572C9.92063 13.3976 9.38255 15.5017 9.26751 17.8767C9.15247 19.9251 9.17103 21.955 9.17103 23.9997C9.17103 26.0445 9.15247 28.0781 9.26751 30.1228C9.38255 32.4978 9.92435 34.6056 11.6611 36.3423C13.4015 38.0827 15.5056 38.6208 17.8806 38.7359C19.929 38.8509 21.9589 38.8324 24.0036 38.8324C26.0521 38.8324 28.082 38.8509 30.1267 38.7359C32.5017 38.6208 34.6095 38.079 36.3462 36.3423C38.0866 34.6019 38.6247 32.4978 38.7398 30.1228C38.8585 28.0781 38.8363 26.0482 38.8363 23.9997ZM35.5706 32.7501C35.2997 33.4255 34.9732 33.9302 34.4499 34.4497C33.9267 34.973 33.4257 35.2995 32.7503 35.5704C30.7984 36.346 26.1634 36.1716 23.9999 36.1716C21.8365 36.1716 17.1978 36.346 15.2458 35.5741C14.5704 35.3032 14.0658 34.9767 13.5462 34.4534C13.023 33.9302 12.6964 33.4292 12.4255 32.7538C11.6536 30.7982 11.8281 26.1632 11.8281 23.9997C11.8281 21.8363 11.6536 17.1976 12.4255 15.2456C12.6964 14.5702 13.023 14.0656 13.5462 13.546C14.0695 13.0265 14.5704 12.6962 15.2458 12.4253C17.1978 11.6534 21.8365 11.8279 23.9999 11.8279C26.1634 11.8279 30.8021 11.6534 32.754 12.4253C33.4294 12.6962 33.9341 13.0228 34.4536 13.546C34.9769 14.0693 35.3034 14.5702 35.5743 15.2456C36.3462 17.1976 36.1718 21.8363 36.1718 23.9997C36.1718 26.1632 36.3462 30.7982 35.5706 32.7501Z" fill="white"/>
</svg>
