<svg width="48" height="48" viewBox="0 0 48 48" fill="none" xmlns="http://www.w3.org/2000/svg">
<rect width="48" height="48" rx="10" fill="#1C2732"/>
<g clip-path="url(#clip0)">
<path d="M39.8446 19.9316C38.8126 14.4836 33.3646 13.8066 33.3646 13.8066H8.96456C8.15656 13.8066 8.05756 14.8696 8.05756 14.8696C8.05756 14.8696 7.94856 24.6366 8.03056 30.6366C8.25056 33.8646 11.4786 34.1976 11.4786 34.1976C11.4786 34.1976 22.4996 34.1666 27.4316 34.1306C30.6826 33.5626 31.0106 30.7076 30.9726 29.1506C36.7806 29.4736 40.8686 25.3746 39.8436 19.9316H39.8446ZM25.0936 24.6146C23.4326 26.5466 19.7456 29.9116 19.7456 29.9116C19.7456 29.9116 19.5846 30.0726 19.3286 29.9426C19.2296 29.8696 19.1886 29.8226 19.1886 29.8226C18.5936 29.2346 14.6976 25.7596 13.8076 24.5516C12.8646 23.2646 12.4226 20.9526 13.6886 19.6036C14.9536 18.2596 17.6936 18.1556 19.5056 20.1446C19.5056 20.1446 21.5886 17.7696 24.1306 18.8636C26.6666 19.9586 26.5736 22.8796 25.0936 24.6146ZM33.3236 25.2506C32.0836 25.4066 31.0796 25.2866 31.0796 25.2866V17.7136H33.4386C33.4386 17.7136 36.0696 18.4486 36.0696 21.2296C36.0696 23.7816 34.7566 24.7866 33.3246 25.2506H33.3236Z" fill="white"/>
</g>
<defs>
<clipPath id="clip0">
<rect width="32" height="32" fill="white" transform="translate(8 8)"/>
</clipPath>
</defs>
</svg>
