<svg width="69" height="76" viewBox="0 0 69 76" fill="none" xmlns="http://www.w3.org/2000/svg">
<path fill-rule="evenodd" clip-rule="evenodd" d="M37.434 33.728L34.9296 16.1973L32.4252 33.7281L21.0895 28.0602L26.7573 39.396L9.22656 41.9003L26.7572 44.4048L21.0895 55.7403L32.4252 50.0726L34.9296 67.6033L37.434 50.0726L48.7696 55.7403L43.1018 44.4048L60.6326 41.9003L43.1018 39.3959L48.7696 28.0602L37.434 33.728Z" fill="#FF2128"/>
<path fill-rule="evenodd" clip-rule="evenodd" d="M37.434 33.728L34.9296 16.1973L32.4252 33.7281L21.0895 28.0602L26.7573 39.396L9.22656 41.9003L26.7572 44.4048L21.0895 55.7403L32.4252 50.0726L34.9296 67.6033L37.434 50.0726L48.7696 55.7403L43.1018 44.4048L60.6326 41.9003L43.1018 39.3959L48.7696 28.0602L37.434 33.728Z" fill="url(#paint0_linear)"/>
<path fill-rule="evenodd" clip-rule="evenodd" d="M9.87135 34.844L20.1189 36.0786L10.6256 32.0235L0.378072 30.7888L9.87135 34.844Z" fill="#FF2128"/>
<path fill-rule="evenodd" clip-rule="evenodd" d="M9.87135 34.844L20.1189 36.0786L10.6256 32.0235L0.378072 30.7888L9.87135 34.844Z" fill="url(#paint1_linear)"/>
<path fill-rule="evenodd" clip-rule="evenodd" d="M58.8093 49.1579L48.5618 47.9234L58.0551 51.9785L68.3026 53.2131L58.8093 49.1579Z" fill="#FF2128"/>
<path fill-rule="evenodd" clip-rule="evenodd" d="M58.8093 49.1579L48.5618 47.9234L58.0551 51.9785L68.3026 53.2131L58.8093 49.1579Z" fill="url(#paint2_linear)"/>
<path fill-rule="evenodd" clip-rule="evenodd" d="M20.8386 18.0213L27.9476 25.5049L23.2179 16.3292L16.109 8.84556L20.8386 18.0213Z" fill="#FF2128"/>
<path fill-rule="evenodd" clip-rule="evenodd" d="M20.8386 18.0213L27.9476 25.5049L23.2179 16.3292L16.109 8.84556L20.8386 18.0213Z" fill="url(#paint3_linear)"/>
<path fill-rule="evenodd" clip-rule="evenodd" d="M47.842 65.9806L40.733 58.497L45.4627 67.6727L52.5717 75.1564L47.842 65.9806Z" fill="#FF2128"/>
<path fill-rule="evenodd" clip-rule="evenodd" d="M47.842 65.9806L40.733 58.497L45.4627 67.6727L52.5717 75.1564L47.842 65.9806Z" fill="url(#paint4_linear)"/>
<path fill-rule="evenodd" clip-rule="evenodd" d="M58.8946 26.3114L48.5611 27.4452L57.9684 23.6188L68.3019 22.485L58.8946 26.3114Z" fill="#FF2128"/>
<path fill-rule="evenodd" clip-rule="evenodd" d="M58.8946 26.3114L48.5611 27.4452L57.9684 23.6188L68.3019 22.485L58.8946 26.3114Z" fill="url(#paint5_linear)"/>
<path fill-rule="evenodd" clip-rule="evenodd" d="M9.78505 40.214L20.1186 39.0802L10.7113 42.9066L0.37783 44.0404L9.78505 40.214Z" fill="#FF2128"/>
<path fill-rule="evenodd" clip-rule="evenodd" d="M9.78505 40.214L20.1186 39.0802L10.7113 42.9066L0.37783 44.0404L9.78505 40.214Z" fill="url(#paint6_linear)"/>
<path fill-rule="evenodd" clip-rule="evenodd" d="M47.8756 9.98616L40.6594 17.2872L45.428 8.4538L52.6441 1.15266L47.8756 9.98616Z" fill="#FF2128"/>
<path fill-rule="evenodd" clip-rule="evenodd" d="M47.8756 9.98616L40.6594 17.2872L45.428 8.4538L52.6441 1.15266L47.8756 9.98616Z" fill="url(#paint7_linear)"/>
<path fill-rule="evenodd" clip-rule="evenodd" d="M20.8051 56.5391L28.0212 49.2382L23.2526 58.0718L16.0366 65.3727L20.8051 56.5391Z" fill="#FF2128"/>
<path fill-rule="evenodd" clip-rule="evenodd" d="M20.8051 56.5391L28.0212 49.2382L23.2526 58.0718L16.0366 65.3727L20.8051 56.5391Z" fill="url(#paint8_linear)"/>
<defs>
<linearGradient id="paint0_linear" x1="32.6565" y1="0.775462" x2="87.9494" y2="65.9164" gradientUnits="userSpaceOnUse">
<stop stop-color="#F7E23B"/>
<stop offset="1" stop-color="white" stop-opacity="0"/>
</linearGradient>
<linearGradient id="paint1_linear" x1="9.98009" y1="30.9437" x2="9.09126" y2="37.1999" gradientUnits="userSpaceOnUse">
<stop stop-color="#F7E23B"/>
<stop offset="1" stop-color="white" stop-opacity="0"/>
</linearGradient>
<linearGradient id="paint2_linear" x1="58.7006" y1="53.0582" x2="59.5894" y2="46.802" gradientUnits="userSpaceOnUse">
<stop stop-color="#F7E23B"/>
<stop offset="1" stop-color="white" stop-opacity="0"/>
</linearGradient>
<linearGradient id="paint3_linear" x1="23.4087" y1="15.0856" x2="18.7359" y2="19.3395" gradientUnits="userSpaceOnUse">
<stop stop-color="#F7E23B"/>
<stop offset="1" stop-color="white" stop-opacity="0"/>
</linearGradient>
<linearGradient id="paint4_linear" x1="45.272" y1="68.9163" x2="49.9448" y2="64.6624" gradientUnits="userSpaceOnUse">
<stop stop-color="#F7E23B"/>
<stop offset="1" stop-color="white" stop-opacity="0"/>
</linearGradient>
<linearGradient id="paint5_linear" x1="58.6968" y1="22.5499" x2="59.5302" y2="28.628" gradientUnits="userSpaceOnUse">
<stop stop-color="#F7E23B"/>
<stop offset="1" stop-color="white" stop-opacity="0"/>
</linearGradient>
<linearGradient id="paint6_linear" x1="9.98284" y1="43.9755" x2="9.14949" y2="37.8974" gradientUnits="userSpaceOnUse">
<stop stop-color="#F7E23B"/>
<stop offset="1" stop-color="white" stop-opacity="0"/>
</linearGradient>
<linearGradient id="paint7_linear" x1="45.2787" y1="7.19683" x2="49.8072" y2="11.4466" gradientUnits="userSpaceOnUse">
<stop stop-color="#F7E23B"/>
<stop offset="1" stop-color="white" stop-opacity="0"/>
</linearGradient>
<linearGradient id="paint8_linear" x1="23.4019" y1="59.3286" x2="18.8735" y2="55.0788" gradientUnits="userSpaceOnUse">
<stop stop-color="#F7E23B"/>
<stop offset="1" stop-color="white" stop-opacity="0"/>
</linearGradient>
</defs>
</svg>
