<svg width="48" height="48" viewBox="0 0 48 48" fill="none" xmlns="http://www.w3.org/2000/svg">
<rect width="48" height="48" rx="10" fill="#1C2732"/>
<path d="M39.4373 14.4369C38.3018 14.9268 37.066 15.2793 35.7932 15.4166C37.1147 14.6315 38.1043 13.3912 38.5764 11.9283C37.3363 12.666 35.9778 13.1833 34.5611 13.4572C33.969 12.8243 33.2529 12.32 32.4574 11.9759C31.6619 11.6317 30.8041 11.4551 29.9373 11.457C26.4305 11.457 23.6102 14.2996 23.6102 17.7879C23.6102 18.2777 23.6695 18.7676 23.766 19.2389C18.515 18.9643 13.8318 16.4557 10.7184 12.6149C10.1511 13.5838 9.85376 14.6871 9.85742 15.81C9.85742 18.0068 10.9744 19.944 12.6777 21.0832C11.6739 21.0437 10.6937 20.7678 9.8166 20.2779V20.3559C9.8166 23.4322 11.9912 25.9817 14.8895 26.568C14.3453 26.7093 13.7855 26.7816 13.2232 26.7832C12.8113 26.7832 12.4217 26.7424 12.0283 26.6867C12.8299 29.1953 15.1641 31.0174 17.9436 31.0768C15.7689 32.7801 13.0451 33.782 10.0875 33.782C9.55684 33.782 9.06699 33.7635 8.55859 33.7041C11.3641 35.5039 14.6928 36.543 18.2775 36.543C29.915 36.543 36.283 26.902 36.283 18.5338C36.283 18.2592 36.283 17.9846 36.2645 17.71C37.4965 16.8082 38.5764 15.6912 39.4373 14.4369Z" fill="white"/>
</svg>
